<svg width="53" height="45" viewBox="0 0 53 45" fill="none" xmlns="http://www.w3.org/2000/svg">
<path d="M16.4999 39C13.9999 39.3333 9.59989 39.7 11.9999 38.5C13.4017 37.7991 13.7345 34.2212 13.6361 30.4363C13.5354 29.2971 13.5 28.3199 13.5 27.7194C13.3731 25.9557 13.184 24.2885 12.9999 23C12.9999 22.6667 11.6999 21.2 6.49953 18C4.10194 16.4016 3.43421 14.8564 3.69873 13.4921C3.85087 12.7074 4.31138 11.9826 4.92853 11.3418C5.92366 10.3086 7.32604 9.4941 8.49953 9L4.99953 1C9.99953 1.33333 20.9995 2.1 24.9995 2.5C28.9995 2.9 38.6662 7.66667 42.9995 10C41.6662 10.8333 38.6995 12.7 37.4995 13.5C36.0551 14.4629 36.4652 13.5714 38.2833 17.5219C38.3533 17.6739 38.4254 17.8332 38.4995 18C38.8265 18.7357 38.8528 19.3725 38.662 19.9216C37.9194 22.0595 33.8865 22.8674 31.4995 23C33.1662 26.6667 36.3995 34.9 35.9995 38.5C35.9821 38.6567 35.9544 38.8091 35.917 38.9575L36.5 37.5C42.5 37.3333 54 37.4 52 39C50 40.6 40.1667 40.3333 35.5 40L35.5779 39.8053C33.6801 43.1991 26.2369 44 23.9995 44C21.4995 44 22.9995 43.5 23.9995 41.5C21.1995 41.1 17.8331 39.6667 16.4999 39Z" fill="white"/>
<path d="M27.5 30C28 33.8333 29.1 40.6 29.5 37C29.9 33.4 30 30.8333 30 30M16.4999 28C16.1666 31.6667 15.3 38.3 14.5 35.5C13.7 32.7 13.5 29.1463 13.5 27.7194M13.5 27.7194C13.3731 25.9557 13.184 24.2885 12.9999 23C12.9999 22.6667 11.6999 21.2 6.49953 18C0.499533 14 5.33287 10.3333 8.49953 9L4.99953 1C9.99953 1.33333 20.9995 2.1 24.9995 2.5C28.9995 2.9 38.6662 7.66667 42.9995 10C41.6662 10.8333 38.6995 12.7 37.4995 13.5C35.9995 14.5 36.4995 13.5 38.4995 18C40.0995 21.6 34.4995 22.8333 31.4995 23C33.1662 26.6667 36.3995 34.9 35.9995 38.5C35.4995 43 26.4995 44 23.9995 44C21.4995 44 22.9995 43.5 23.9995 41.5C21.1995 41.1 17.8331 39.6667 16.4999 39C13.9999 39.3333 9.59989 39.7 11.9999 38.5C13.7372 37.6313 13.8326 32.3435 13.5 27.7194ZM17 16.5C18 17.1667 20.1 17.9 20.5 15.5C21.5 17 23 18.5 24.5 16.5M7 14L0.5 13M8 12L1 10.5M35.5 17L43.5 18.5M35.5 19.5L43 20.5M36.5 37.5C42.5 37.3333 54 37.4 52 39C50 40.6 40.1667 40.3333 35.5 40L36.5 37.5Z" stroke="black" stroke-linecap="round"/>
<circle cx="28" cy="14" r="1" fill="black"/>
<circle cx="13" cy="13" r="1" fill="black"/>
</svg>
